<svg id="svg" xmlns="http://www.w3.org/2000/svg" xmlns:xlink="http://www.w3.org/1999/xlink" width="400" height="106.99588477366255" viewBox="0, 0, 400,106.99588477366255"><g id="svgg"><path id="path0" d="M88.955 8.419 C 49.611 11.910,4.628 26.481,9.557 34.137 C 11.145 36.602,21.413 38.649,44.444 41.089 C 58.141 42.540,83.993 48.169,86.965 50.348 C 87.265 50.568,84.128 54.900,79.994 59.975 C 60.916 83.398,62.238 94.754,84.805 101.315 C 97.107 104.891,107.071 103.729,119.978 97.213 C 131.480 91.407,131.687 91.362,131.687 94.650 C 131.687 96.008,132.878 97.119,134.332 97.119 C 136.149 97.119,136.640 96.240,135.901 94.314 C 133.885 89.060,132.861 66.396,134.507 63.455 C 135.895 60.973,136.514 61.520,138.808 67.252 C 143.073 77.913,151.013 81.211,161.512 76.683 C 163.369 75.882,164.439 76.537,165.042 78.844 C 166.167 83.144,173.554 84.949,180.198 82.546 C 183.980 81.179,187.967 81.132,194.703 82.377 C 199.812 83.322,205.686 83.918,207.757 83.701 C 209.828 83.485,215.967 85.430,221.399 88.023 C 230.120 92.187,233.331 92.781,248.833 93.101 C 258.490 93.300,267.108 93.906,267.984 94.447 C 272.168 97.033,293.588 92.241,306.887 85.744 C 321.869 78.425,324.652 77.930,330.864 81.481 C 333.128 82.775,338.407 83.860,342.597 83.892 C 347.299 83.928,350.998 84.896,352.263 86.420 C 358.144 93.505,364.412 88.556,369.525 72.791 L 373.098 61.770 377.822 68.907 C 382.480 75.946,392.878 84.477,395.114 83.095 C 395.746 82.705,390.840 76.748,384.212 69.857 C 370.834 55.948,370.043 55.817,367.147 67.036 C 362.989 83.141,357.373 89.240,353.086 82.305 C 352.527 81.399,349.177 80.658,345.643 80.658 C 342.108 80.658,335.446 79.172,330.837 77.356 C 324.818 74.983,321.614 74.504,319.462 75.656 C 316.725 77.120,316.537 76.624,317.292 69.933 C 321.031 36.757,259.049 5.099,212.346 16.332 C 181.323 23.793,173.742 51.083,196.790 72.328 C 200.819 76.042,204.115 79.389,204.115 79.766 C 204.115 81.079,191.762 78.492,190.761 76.970 C 190.168 76.066,186.534 76.529,181.921 78.095 C 173.812 80.848,167.901 80.286,167.901 76.762 C 167.901 72.214,164.410 71.033,158.398 73.545 C 150.007 77.051,145.605 74.531,140.684 63.404 C 136.005 52.825,132.909 52.719,130.522 63.057 L 128.928 69.959 126.949 65.151 C 118.977 45.781,103.766 36.682,93.827 45.338 C 91.776 47.125,89.016 46.810,77.525 43.478 C 69.916 41.272,56.583 38.669,47.895 37.693 C 17.297 34.256,14.138 33.730,14.289 32.099 C 15.128 22.997,113.516 5.075,118.487 13.118 C 119.835 15.299,123.457 14.122,123.457 11.503 C 123.457 9.770,112.562 6.507,107.819 6.820 C 106.008 6.939,97.519 7.659,88.955 8.419 M253.498 18.981 C 296.426 28.897,327.281 62.426,308.585 78.842 C 300.275 86.138,294.608 85.688,284.128 76.901 C 273.165 67.710,268.547 65.844,256.769 65.844 C 236.461 65.844,228.077 75.201,239.522 85.094 C 249.330 93.573,230.206 90.017,214.237 80.394 C 170.426 53.990,179.398 22.408,232.099 17.522 C 235.267 17.228,238.971 16.880,240.329 16.749 C 241.687 16.617,247.613 17.622,253.498 18.981 M109.465 47.515 C 112.181 49.197,115.743 52.900,117.380 55.744 L 120.356 60.915 113.021 57.014 C 108.986 54.869,103.202 52.232,100.168 51.155 L 94.650 49.197 98.765 46.879 C 104.001 43.930,103.642 43.909,109.465 47.515 M106.074 57.688 C 123.107 65.735,133.096 79.950,127.772 88.565 C 120.969 99.573,84.853 101.810,72.982 91.957 C 67.637 87.522,72.636 73.886,84.830 59.639 C 91.944 51.329,92.506 51.277,106.074 57.688 M268.479 71.078 C 276.512 73.865,293.577 88.317,290.314 89.569 C 285.133 91.557,260.765 90.574,257.585 88.249 C 255.866 86.992,253.569 86.305,252.481 86.722 C 250.087 87.641,241.732 83.509,238.773 79.944 C 232.652 72.568,254.221 66.130,268.479 71.078 " stroke="none" fill="#FFFFFF" fill-rule="evenodd"></path></g></svg>
